# xmcd CD database file
#
# Track frame offsets:
#	150
#	13327
#	42730
#	67197
#	80657
#	94992
#	116567
#	158517
#	172492
#	201332
#	206020
#	225430
#
# Disc length: 3172 seconds
#
# Revision: 1
# Processed by: cddbd v1.4PL0 Copyright (c) Steve Scherf et al.
# Submitted via: CDex 1.40Beta9
#
DISCID=b20c620c
DTITLE=Robert Cray - Shoulda Been Home
DYEAR=2001
DGENRE=Blues
TTITLE0=Baby's Arms
TTITLE1=Already Gone
TTITLE2=Anytime
TTITLE3=Love Sickness
TTITLE4=I'm Afraid
TTITLE5=No One Special
TTITLE6=Out Of Eden
TTITLE7=Cry For Me Baby
TTITLE8=Far Away
TTITLE9=Renew Blues
TTITLE10=Help Me Forget
TTITLE11=The 12 Year Old Boy
EXTD=YEAR: 2001 ID3G: 0
EXTT0=
EXTT1=
EXTT2=
EXTT3=
EXTT4=
EXTT5=
EXTT6=
EXTT7=
EXTT8=
EXTT9=
EXTT10=
EXTT11=
PLAYORDER=
